<mxfile host="app.diagrams.net" agent="Mozilla/5.0 (Macintosh; Intel Mac OS X 10_15_7) AppleWebKit/537.36 (KHTML, like Gecko) Chrome/135.0.0.0 Safari/537.36" version="26.2.10">
  <diagram name="Page-1" id="zsPMJA2jM5UGm9Cd-OFp">
    <mxGraphModel dx="1428" dy="718" grid="1" gridSize="10" guides="1" tooltips="1" connect="1" arrows="1" fold="1" page="1" pageScale="1" pageWidth="850" pageHeight="1100" math="0" shadow="0">
      <root>
        <mxCell id="0" />
        <mxCell id="1" parent="0" />
        <mxCell id="R8fwzc4NF9d5jHF825gl-1" value="&lt;div&gt;ID Лиги&lt;/div&gt;Команда 1&lt;div&gt;&lt;div&gt;Команда 2&lt;/div&gt;&lt;div&gt;Стадион&lt;/div&gt;&lt;div&gt;Дата матча&lt;/div&gt;&lt;div&gt;...&lt;/div&gt;&lt;div&gt;ID главного арбитра&lt;/div&gt;&lt;/div&gt;" style="rounded=1;whiteSpace=wrap;html=1;" parent="1" vertex="1">
          <mxGeometry x="140" y="600" width="160" height="100" as="geometry" />
        </mxCell>
        <mxCell id="R8fwzc4NF9d5jHF825gl-2" value="Инфо о матче" style="text;html=1;align=center;verticalAlign=middle;whiteSpace=wrap;rounded=0;fontStyle=1" parent="1" vertex="1">
          <mxGeometry x="160" y="570" width="120" height="30" as="geometry" />
        </mxCell>
        <mxCell id="R8fwzc4NF9d5jHF825gl-3" value="&lt;div&gt;ID главного арбитра&lt;/div&gt;&lt;div&gt;Страна&lt;/div&gt;&lt;div&gt;...&lt;/div&gt;&lt;div&gt;Ср кол-во ЖК за посл 10 матчей&lt;/div&gt;&lt;div&gt;&lt;div&gt;Ср кол-во ЖК за посл 100 матчей&lt;/div&gt;&lt;/div&gt;" style="rounded=1;whiteSpace=wrap;html=1;" parent="1" vertex="1">
          <mxGeometry x="350" y="600" width="200" height="80" as="geometry" />
        </mxCell>
        <mxCell id="R8fwzc4NF9d5jHF825gl-4" value="Инфо об арбитре" style="text;html=1;align=center;verticalAlign=middle;whiteSpace=wrap;rounded=0;fontStyle=1" parent="1" vertex="1">
          <mxGeometry x="390" y="570" width="120" height="30" as="geometry" />
        </mxCell>
        <mxCell id="R8fwzc4NF9d5jHF825gl-5" value="Добавить инфо по соотношению кол-ва фолов к ЖК - как еще один показатель. Как в матче конкретном в разрезе судьи, так и в рамках обычных матчей команды" style="ellipse;whiteSpace=wrap;html=1;align=center;dashed=1;" parent="1" vertex="1">
          <mxGeometry x="560" y="340" width="260" height="120" as="geometry" />
        </mxCell>
        <mxCell id="R8fwzc4NF9d5jHF825gl-6" value="&lt;div&gt;Команда 1&lt;/div&gt;&lt;div&gt;Команда 2&lt;/div&gt;&lt;div&gt;Дата матча&lt;/div&gt;&lt;div&gt;Арбитр&lt;/div&gt;&lt;div&gt;...&lt;/div&gt;&lt;div&gt;Кол-во ЖК&lt;/div&gt;" style="rounded=1;whiteSpace=wrap;html=1;" parent="1" vertex="1">
          <mxGeometry x="240" y="460" width="200" height="100" as="geometry" />
        </mxCell>
        <mxCell id="R8fwzc4NF9d5jHF825gl-7" value="Статистика прошлых игр по ЖК" style="text;html=1;align=center;verticalAlign=middle;whiteSpace=wrap;rounded=0;fontStyle=1" parent="1" vertex="1">
          <mxGeometry x="280" y="420" width="130" height="30" as="geometry" />
        </mxCell>
        <mxCell id="YenB-Bxz-LfcBRluay5c-1" value="ID Лиги&lt;div&gt;Название лиги&lt;/div&gt;&lt;div&gt;Страна&lt;/div&gt;&lt;div&gt;ID Команды&lt;/div&gt;" style="rounded=1;whiteSpace=wrap;html=1;" vertex="1" parent="1">
          <mxGeometry x="60" y="310" width="160" height="80" as="geometry" />
        </mxCell>
        <mxCell id="YenB-Bxz-LfcBRluay5c-2" value="Справочник лиг" style="text;html=1;align=center;verticalAlign=middle;whiteSpace=wrap;rounded=0;fontStyle=1" vertex="1" parent="1">
          <mxGeometry x="80" y="280" width="120" height="30" as="geometry" />
        </mxCell>
        <mxCell id="YenB-Bxz-LfcBRluay5c-3" value="Таблица матчей будет исторической. Можно добавить столбец историчности" style="ellipse;whiteSpace=wrap;html=1;align=center;dashed=1;" vertex="1" parent="1">
          <mxGeometry x="670" y="140" width="190" height="80" as="geometry" />
        </mxCell>
        <mxCell id="YenB-Bxz-LfcBRluay5c-4" value="Требуется учитывать то, на каком месте в таблице своей лиги находится команда. Именно в рамках карточек проранжировать" style="ellipse;whiteSpace=wrap;html=1;align=center;dashed=1;" vertex="1" parent="1">
          <mxGeometry x="610" y="230" width="230" height="100" as="geometry" />
        </mxCell>
        <mxCell id="YenB-Bxz-LfcBRluay5c-5" value="Нужно счет учитывать. При этом можно варианта 0 - 0, 1 - 1 и тд. Можно сделать справочник со счетом и каждому присвоить ID. Или может другой какой-то способ" style="ellipse;whiteSpace=wrap;html=1;align=center;dashed=1;" vertex="1" parent="1">
          <mxGeometry x="640" y="470" width="240" height="160" as="geometry" />
        </mxCell>
      </root>
    </mxGraphModel>
  </diagram>
</mxfile>
